<svg width="512" height="511" viewBox="0 0 512 511" fill="none" xmlns="http://www.w3.org/2000/svg">
<path d="M0 0H512V511H0V0Z" fill="#D9D9D9"/>
<path d="M104.288 434V421.712L157.536 413.52H165.728V434H104.288ZM133.984 434C134.667 420.688 135.179 405.157 135.52 387.408C136.203 369.317 136.544 350.715 136.544 331.6C136.885 312.144 137.056 293.712 137.056 276.304V254.288C137.056 236.88 136.885 218.96 136.544 200.528C136.544 181.755 136.373 163.664 136.032 146.256C135.691 128.848 135.179 113.488 134.496 100.176H225.632C224.949 113.488 224.437 128.848 224.096 146.256C223.755 163.664 223.413 181.755 223.072 200.528C223.072 218.96 223.072 236.88 223.072 254.288V276.304C223.072 293.712 223.072 312.144 223.072 331.6C223.413 350.715 223.755 369.317 224.096 387.408C224.437 405.157 224.949 420.688 225.632 434H133.984ZM189.28 434V419.664H232.8C249.525 419.664 263.861 413.52 275.808 401.232C288.096 388.603 297.483 370.853 303.968 347.984C310.795 324.773 314.208 297.637 314.208 266.576C314.208 219.131 306.869 181.925 292.192 154.96C277.515 127.995 257.547 114.512 232.288 114.512H189.28V100.176H236.384C273.931 100.176 305.163 106.832 330.08 120.144C354.997 133.456 373.6 152.4 385.888 176.976C398.176 201.211 404.32 230.053 404.32 263.504C404.32 298.661 397.664 329.04 384.352 354.64C371.381 379.899 352.608 399.525 328.032 413.52C303.456 427.173 273.589 434 238.432 434H189.28ZM104.288 112.464V100.176H165.728V120.656H157.536L104.288 112.464Z" fill="black"/>
</svg>
