<svg width="101" height="14" viewBox="0 0 101 14" fill="none" xmlns="http://www.w3.org/2000/svg">
<path d="M5.36 6.81999C5.36 7.64666 5.36 8.47999 5.36 9.31999C5.37333 10.1467 5.38667 10.9733 5.4 11.8H5.68C6.66667 11.8 7.45333 11.34 8.04 10.42C8.64 9.49999 8.94 8.19333 8.94 6.49999C8.94 4.79333 8.64 3.49333 8.04 2.59999C7.44 1.69333 6.64667 1.23999 5.66 1.23999H5.4C5.38667 2.05333 5.37333 2.87333 5.36 3.69999C5.36 4.52666 5.36 5.35999 5.36 6.19999V6.81999ZM-1.35601e-06 1.17999V-6.91414e-06H5.96C7.44 -6.91414e-06 8.7 0.266659 9.74 0.799992C10.78 1.33333 11.5733 2.08666 12.12 3.05999C12.6667 4.01999 12.94 5.15333 12.94 6.45999C12.94 7.83333 12.6467 9.01333 12.06 9.99999C11.4733 10.9733 10.6333 11.7267 9.54 12.26C8.44667 12.78 7.14 13.04 5.62 13.04H-1.35601e-06V11.86L1.38 11.72C1.39333 10.92 1.4 10.1133 1.4 9.29999C1.4 8.47333 1.4 7.65333 1.4 6.83999V6.19999C1.4 5.38666 1.4 4.57333 1.4 3.75999C1.4 2.94666 1.39333 2.13333 1.38 1.31999L-1.35601e-06 1.17999ZM21.3919 13.36C20.7652 13.36 20.2585 13.24 19.8719 13C19.4985 12.7467 19.2252 12.3933 19.0519 11.94C18.6652 12.3667 18.2719 12.7133 17.8719 12.98C17.4852 13.2333 16.9319 13.36 16.2119 13.36C15.4252 13.36 14.7919 13.1333 14.3119 12.68C13.8452 12.2267 13.6119 11.5933 13.6119 10.78C13.6119 10.26 13.7252 9.79999 13.9519 9.39999C14.1919 8.98666 14.6052 8.61333 15.1919 8.27999C15.7919 7.93333 16.6319 7.61999 17.7119 7.33999C17.8719 7.29999 18.0585 7.25333 18.2719 7.19999C18.4852 7.13333 18.7052 7.07333 18.9319 7.01999V6.29999C18.9319 5.44666 18.8319 4.85999 18.6319 4.53999C18.4452 4.21999 18.0385 4.05999 17.4119 4.05999C17.3585 4.05999 17.3052 4.05999 17.2519 4.05999C17.2119 4.05999 17.1652 4.05999 17.1119 4.05999V4.73999C17.1119 5.55333 16.9452 6.13333 16.6119 6.47999C16.2785 6.81333 15.8985 6.97999 15.4719 6.97999C14.6585 6.97999 14.1519 6.61999 13.9519 5.89999C13.9519 5.03333 14.3585 4.33333 15.1719 3.79999C15.9985 3.25333 17.2185 2.97999 18.8319 2.97999C20.2185 2.97999 21.1919 3.28666 21.7519 3.89999C22.3252 4.49999 22.6119 5.48666 22.6119 6.85999V11.44C22.6119 11.6667 22.7252 11.78 22.9519 11.78C23.0319 11.78 23.1119 11.7533 23.1919 11.7C23.2719 11.6333 23.3719 11.5133 23.4919 11.34L24.0719 11.66C23.8319 12.2733 23.4985 12.7133 23.0719 12.98C22.6585 13.2333 22.0985 13.36 21.3919 13.36ZM17.0519 10.16C17.0519 10.6533 17.1519 11.02 17.3519 11.26C17.5519 11.5 17.7985 11.62 18.0919 11.62C18.1852 11.62 18.2852 11.6 18.3919 11.56C18.5119 11.5067 18.6919 11.4 18.9319 11.24V7.95999C18.7319 8.01333 18.5385 8.08666 18.3519 8.17999C18.0719 8.31333 17.7852 8.53999 17.4919 8.85999C17.1985 9.17999 17.0519 9.61333 17.0519 10.16ZM28.3927 13.36C27.406 13.36 26.6393 13.1333 26.0927 12.68C25.546 12.2133 25.2727 11.4467 25.2727 10.38C25.2727 9.99333 25.2727 9.63999 25.2727 9.31999C25.286 8.98666 25.2927 8.62666 25.2927 8.23999V4.79999H24.1527V3.47999L25.5127 3.29999L26.7127 0.459993H29.0927V3.29999H30.9327V4.79999H29.0927V10.16C29.0927 10.6133 29.186 10.9467 29.3727 11.16C29.5593 11.3733 29.7927 11.48 30.0727 11.48C30.3793 11.48 30.706 11.3467 31.0527 11.08L31.5527 11.54C31.286 12.1133 30.8993 12.56 30.3927 12.88C29.886 13.2 29.2193 13.36 28.3927 13.36ZM31.7741 13.04V12.02L32.7341 11.8C32.7474 11.32 32.7541 10.8133 32.7541 10.28C32.7541 9.73333 32.7541 9.25333 32.7541 8.83999V7.57999C32.7541 7.20666 32.7474 6.90666 32.7341 6.67999C32.7341 6.45333 32.7274 6.24666 32.7141 6.05999C32.7141 5.85999 32.7074 5.62666 32.6941 5.35999L31.6141 5.17999V4.35999L36.0341 2.97999L36.3941 3.19999L36.5541 5.51999C36.8207 4.65333 37.2007 4.01333 37.6941 3.59999C38.2007 3.18666 38.6941 2.97999 39.1741 2.97999C39.6674 2.97999 40.0807 3.12666 40.4141 3.41999C40.7607 3.69999 40.9674 4.14666 41.0341 4.75999C41.0074 5.29333 40.8474 5.71333 40.5541 6.01999C40.2607 6.31333 39.9141 6.45999 39.5141 6.45999C38.9007 6.45999 38.3407 6.09333 37.8341 5.35999L37.7341 5.21999C37.4941 5.48666 37.2541 5.83333 37.0141 6.25999C36.7874 6.68666 36.6341 7.12666 36.5541 7.57999V8.83999C36.5541 9.22666 36.5541 9.67999 36.5541 10.2C36.5541 10.72 36.5607 11.2133 36.5741 11.68L38.1341 12.02V13.04H31.7741ZM46.2114 4.05999C45.9047 4.05999 45.6447 4.28666 45.4314 4.73999C45.2181 5.19333 45.0981 6.03999 45.0714 7.27999H46.0114C46.4914 7.27999 46.8114 7.18666 46.9714 6.99999C47.1447 6.79999 47.2314 6.44666 47.2314 5.93999C47.2314 5.24666 47.1247 4.75999 46.9114 4.47999C46.7114 4.19999 46.4781 4.05999 46.2114 4.05999ZM46.2714 13.36C45.2714 13.36 44.3781 13.1533 43.5914 12.74C42.8181 12.3267 42.2047 11.7333 41.7514 10.96C41.2981 10.1733 41.0714 9.23333 41.0714 8.13999C41.0714 7.27333 41.2247 6.51999 41.5314 5.87999C41.8381 5.23999 42.2514 4.70666 42.7714 4.27999C43.2914 3.83999 43.8714 3.51333 44.5114 3.29999C45.1514 3.08666 45.7981 2.97999 46.4514 2.97999C47.4114 2.97999 48.2047 3.17999 48.8314 3.57999C49.4714 3.96666 49.9514 4.49333 50.2714 5.15999C50.5914 5.81333 50.7514 6.54666 50.7514 7.35999C50.7514 7.57333 50.7447 7.75999 50.7314 7.91999C50.7181 8.06666 50.6914 8.23333 50.6514 8.41999H45.0914C45.1981 9.39333 45.4847 10.1 45.9514 10.54C46.4314 10.98 46.9647 11.2 47.5514 11.2C48.0581 11.2 48.4914 11.1133 48.8514 10.94C49.2247 10.7533 49.5514 10.5267 49.8314 10.26L50.6114 11.02C50.1847 11.8333 49.5981 12.4267 48.8514 12.8C48.1181 13.1733 47.2581 13.36 46.2714 13.36ZM55.2787 13.36C53.8921 13.36 52.6654 13.0333 51.5987 12.38L51.6987 9.81999H53.5187L53.8387 11.9C54.0654 11.9933 54.2987 12.0667 54.5387 12.12C54.7787 12.16 55.0254 12.18 55.2787 12.18C55.7854 12.18 56.1787 12.1 56.4587 11.94C56.7387 11.78 56.8787 11.5133 56.8787 11.14C56.8787 10.8733 56.7721 10.6333 56.5587 10.42C56.3587 10.2067 55.9254 10.0133 55.2587 9.83999L54.1187 9.53999C53.3321 9.32666 52.7321 8.95333 52.3187 8.41999C51.9054 7.87333 51.6987 7.21333 51.6987 6.43999C51.6987 5.43999 52.0787 4.61333 52.8387 3.95999C53.6121 3.30666 54.7187 2.97999 56.1587 2.97999C56.7721 2.97999 57.3387 3.04666 57.8587 3.17999C58.3921 3.31333 58.9321 3.51333 59.4787 3.77999L59.3187 6.03999H57.4787L57.0387 4.25999C56.9054 4.23333 56.7587 4.21333 56.5987 4.19999C56.4521 4.17333 56.2721 4.15999 56.0587 4.15999C55.6854 4.15999 55.3654 4.24666 55.0987 4.41999C54.8454 4.57999 54.7187 4.83333 54.7187 5.17999C54.7187 5.39333 54.8121 5.59999 54.9987 5.79999C55.1854 5.99999 55.6254 6.19333 56.3187 6.37999L57.4387 6.67999C58.3721 6.93333 59.0387 7.32666 59.4387 7.85999C59.8521 8.39333 60.0587 9.05333 60.0587 9.83999C60.0587 11.0133 59.6254 11.8933 58.7587 12.48C57.9054 13.0667 56.7454 13.36 55.2787 13.36ZM67.6413 13.28L67.5613 11.7C67.1613 12.22 66.7013 12.6267 66.1813 12.92C65.6613 13.2133 65.0813 13.36 64.4413 13.36C63.5613 13.36 62.8479 13.0933 62.3013 12.56C61.7679 12.0133 61.5079 11.08 61.5213 9.75999L61.6013 4.91999L60.5613 4.67999V3.77999L65.1013 3.07999L65.4613 3.29999L65.3613 6.13999V9.85999C65.3613 10.38 65.4413 10.74 65.6013 10.94C65.7746 11.1267 65.9879 11.22 66.2413 11.22C66.4413 11.22 66.6479 11.1533 66.8613 11.02C67.0879 10.8867 67.3079 10.72 67.5213 10.52L67.6013 4.89999L66.6413 4.67999V3.87999L71.0613 3.07999L71.4213 3.29999L71.3613 6.13999V11.84L72.2813 12.04V13.06L67.6413 13.28ZM73.025 13.04V12.02L73.945 11.8C73.9583 11.32 73.965 10.8133 73.965 10.28C73.965 9.73333 73.965 9.25333 73.965 8.83999V7.59999C73.965 7.22666 73.965 6.92666 73.965 6.69999C73.965 6.47333 73.9583 6.25999 73.945 6.05999C73.945 5.85999 73.9317 5.62666 73.905 5.35999L72.825 5.17999V4.35999L77.245 2.97999L77.605 3.19999L77.705 4.57999C78.1717 4.01999 78.6383 3.61333 79.105 3.35999C79.5717 3.10666 80.0983 2.97999 80.685 2.97999C82.0983 2.97999 83.0183 3.55999 83.445 4.71999C84.005 4.02666 84.5183 3.56666 84.985 3.33999C85.4517 3.09999 85.9583 2.97999 86.505 2.97999C87.5983 2.97999 88.3783 3.27999 88.845 3.87999C89.325 4.47999 89.565 5.36666 89.565 6.53999V8.83999C89.565 9.26666 89.565 9.75333 89.565 10.3C89.565 10.8467 89.5717 11.36 89.585 11.84L90.425 12.02V13.04H85.065V12.02L85.825 11.82C85.8383 11.34 85.845 10.8267 85.845 10.28C85.845 9.73333 85.845 9.25333 85.845 8.83999V6.81999C85.845 6.13999 85.7783 5.68666 85.645 5.45999C85.5117 5.23333 85.2717 5.11999 84.925 5.11999C84.4983 5.11999 84.0717 5.27999 83.645 5.59999C83.6583 5.70666 83.665 5.81999 83.665 5.93999C83.6783 6.05999 83.685 6.18666 83.685 6.31999V8.83999C83.685 9.26666 83.685 9.75333 83.685 10.3C83.685 10.8467 83.6917 11.3667 83.705 11.86L84.465 12.02V13.04H79.085V12.02L79.945 11.8C79.9583 11.3333 79.965 10.8267 79.965 10.28C79.965 9.73333 79.965 9.25333 79.965 8.83999V6.81999C79.965 6.20666 79.8983 5.77333 79.765 5.51999C79.645 5.25333 79.3917 5.11999 79.005 5.11999C78.805 5.11999 78.5983 5.16666 78.385 5.25999C78.1717 5.35333 77.965 5.47333 77.765 5.61999V8.83999C77.765 9.25333 77.765 9.73999 77.765 10.3C77.765 10.8467 77.7717 11.3667 77.785 11.86L78.545 12.02V13.04H73.025ZM96.3481 4.05999C96.0415 4.05999 95.7815 4.28666 95.5681 4.73999C95.3548 5.19333 95.2348 6.03999 95.2081 7.27999H96.1481C96.6281 7.27999 96.9481 7.18666 97.1081 6.99999C97.2815 6.79999 97.3681 6.44666 97.3681 5.93999C97.3681 5.24666 97.2615 4.75999 97.0481 4.47999C96.8481 4.19999 96.6148 4.05999 96.3481 4.05999ZM96.4081 13.36C95.4081 13.36 94.5148 13.1533 93.7281 12.74C92.9548 12.3267 92.3415 11.7333 91.8881 10.96C91.4348 10.1733 91.2081 9.23333 91.2081 8.13999C91.2081 7.27333 91.3615 6.51999 91.6681 5.87999C91.9748 5.23999 92.3881 4.70666 92.9081 4.27999C93.4281 3.83999 94.0081 3.51333 94.6481 3.29999C95.2881 3.08666 95.9348 2.97999 96.5881 2.97999C97.5481 2.97999 98.3415 3.17999 98.9681 3.57999C99.6081 3.96666 100.088 4.49333 100.408 5.15999C100.728 5.81333 100.888 6.54666 100.888 7.35999C100.888 7.57333 100.881 7.75999 100.868 7.91999C100.855 8.06666 100.828 8.23333 100.788 8.41999H95.2281C95.3348 9.39333 95.6215 10.1 96.0881 10.54C96.5681 10.98 97.1015 11.2 97.6881 11.2C98.1948 11.2 98.6281 11.1133 98.9881 10.94C99.3615 10.7533 99.6881 10.5267 99.9681 10.26L100.748 11.02C100.321 11.8333 99.7348 12.4267 98.9881 12.8C98.2548 13.1733 97.3948 13.36 96.4081 13.36Z" fill="black"/>
</svg>
